<svg xmlns="http://www.w3.org/2000/svg" version="1.1" xmlns:xlink="http://www.w3.org/1999/xlink" xmlns:svgjs="http://svgjs.com/svgjs" width="512" height="512" x="0" y="0" viewBox="0 0 64 64" style="enable-background:new 0 0 512 512" xml:space="preserve" class=""><g><g xmlns="http://www.w3.org/2000/svg" id="coupon"><path d="m57 25.875c.553 0 1-.447 1-1v-8.875c0-1.654-1.346-3-3-3h-23-23c-1.654 0-3 1.346-3 3v8.875c0 .553.447 1 1 1 3.309 0 6 2.691 6 6s-2.691 6-6 6c-.553 0-1 .447-1 1 0 .022.012.041.013.063-.001.021-.013.04-.013.062v9c0 1.654 1.346 3 3 3h23 23c1.654 0 3-1.346 3-3v-9.125c0-.553-.447-1-1-1-3.309 0-6-2.691-6-6s2.691-6 6-6zm-8 6c0 4.072 3.061 7.436 7 7.931v8.194c0 .552-.448 1-1 1h-33v-4c0-.553-.447-1-1-1s-1 .447-1 1v4h-11c-.552 0-1-.448-1-1v-8.194c3.939-.495 7-3.858 7-7.931s-3.061-7.436-7-7.931v-7.944c0-.552.448-1 1-1h11v4c0 .553.447 1 1 1s1-.447 1-1v-4h33c.552 0 1 .448 1 1v7.944c-3.939.495-7 3.859-7 7.931zm-27-7.875v5c0 .553-.447 1-1 1s-1-.447-1-1v-5c0-.553.447-1 1-1s1 .447 1 1zm0 11v5c0 .553-.447 1-1 1s-1-.447-1-1v-5c0-.553.447-1 1-1s1 .447 1 1zm14-10c0-2.757-2.243-5-5-5s-5 2.243-5 5 2.243 5 5 5 5-2.243 5-5zm-8 0c0-1.654 1.346-3 3-3s3 1.346 3 3-1.346 3-3 3-3-1.346-3-3zm14 9c-2.757 0-5 2.243-5 5s2.243 5 5 5 5-2.243 5-5-2.243-5-5-5zm0 8c-1.654 0-3-1.346-3-3s1.346-3 3-3 3 1.346 3 3-1.346 3-3 3zm2.769-18.359-15 18c-.199.237-.483.359-.77.359-.226 0-.452-.076-.64-.231-.424-.354-.481-.984-.128-1.409l15-18c.354-.424.983-.481 1.409-.128.424.353.482.984.129 1.409z" fill="#000000" data-original="#000000" class=""></path></g></g></svg>